<svg xmlns="http://www.w3.org/2000/svg" viewBox="0 0 213.37 60.72"><defs><style>.cls-1{fill:none;stroke:#231f20;stroke-miterlimit:3.86;stroke-width:0.25px;}.cls-2{fill:#5f8b88;}.cls-2,.cls-3,.cls-4{fill-rule:evenodd;}.cls-3{fill:#8a784a;}.cls-4{fill:#d0c9b6;}</style></defs><title>hannon-logo</title><g id="Layer_2" data-name="Layer 2"><g id="Foreground"><path class="cls-1" d="M108.69,24.36"/><path class="cls-2" d="M211.63,38.43V.65h-4.94V26.49L186,.65H179l3.77,4.71V38.43h4.89v-27l21.42,27ZM178.11,19.6c0,11.48-8.06,19.6-18.89,19.6s-18.89-8.12-18.89-19.6S148.39,0,159.22,0,178.11,8.12,178.11,19.6ZM135.62,38.43V.65h-4.94V26.49L110,.65H103l3.77,4.71V38.43h4.89v-27l21.42,27Zm-37.07,0V.65H93.6V26.49L72.94.65H65.88l3.77,4.71V38.43h4.89v-27L96,38.43ZM54.84,24h-11l5.59-13.48ZM66.78,38.43,51.54.59H45.48l1.71,4.18L32.53,38.43h5.3l4.24-10.3H56.54l4.12,10.3Zm-37.18,0V.65H24V16.54H5.59V.65H0V38.43H5.59V21.13H24v17.3Z"/><path class="cls-3" d="M213.37,58.86h-5.75V54.52h3.7l.59-1.49h-4.3V48.81h4.77L213,47.3h-7.32V60.43h6.87Zm-13.16.76v-2a6.54,6.54,0,0,1-4,1.35,5.08,5.08,0,0,1-4.85-5.16,4.85,4.85,0,0,1,4.85-5.07,7.39,7.39,0,0,1,4,1.35v-2a8.33,8.33,0,0,0-3.95-1,6.74,6.74,0,0,0-7,6.89c0,3.87,2.78,6.71,7,6.71A8.08,8.08,0,0,0,200.22,59.61Zm-15.93.82V47.3h-1.72v9l-7.18-9h-2.46l1.31,1.64v11.5h1.7V51.06l7.45,9.37Zm-18.95-5h-3.83l1.94-4.69Zm4.15,5-5.3-13.16h-2.11l.59,1.45-5.09,11.7h1.84l1.47-3.58h5l1.43,3.58ZM151.19,51a3.16,3.16,0,0,1-1.74,2.68H146.8V48.58h1.15C150.15,48.58,151.19,49.3,151.19,51Zm4,9.42-4.71-5.92a4.15,4.15,0,0,0,2.64-3.68c0-2.49-2-3.72-4.66-3.72a16.46,16.46,0,0,0-3.64.41V60.43h1.94V55.1l1.94,0,4,5.31Zm-16.31-4.56V47.34h-1.64v8.39A3.21,3.21,0,0,1,134,59.14c-2.07,0-3.13-1.58-3.13-3.78v-8h-1.94v8.14c0,3.38,1.94,5.24,5.07,5.24A4.76,4.76,0,0,0,138.92,55.87ZM123.59,57c0-1.66-1.37-2.68-2.33-3.27L120,52.92c-1-.61-2-1.17-2-2.23,0-1.33,1.19-2,2.48-2A3.8,3.8,0,0,1,123.38,50V47.93a5.71,5.71,0,0,0-2.82-.82c-2.6,0-4.4,1.49-4.4,3.81,0,1.27.72,2.35,2.43,3.42l1.21.74c.53.33,1.78.92,1.78,2.07a2.17,2.17,0,0,1-2.33,2,5.13,5.13,0,0,1-3.36-1.27l.29,2.25a9,9,0,0,0,3.19.61C121.78,60.7,123.59,59.2,123.59,57ZM110.4,60.43V47.3h-1.72v9l-7.18-9H99l1.31,1.64v11.5h1.7V51.06l7.45,9.37Zm-16.64,0V47.3H91.82V60.43Z"/><path class="cls-4" d="M173,20.67s-7-6.86-14.54-4.8c-10.21,2.8-10.55-9.75-10.55-9.75S150.18,9.83,159,8C170.92,5.51,173,20.67,173,20.67Z"/><path class="cls-4" d="M170,32.78s-2.11-15.16-14-12.68c-8.86,1.85-11.11-1.87-11.11-1.87s.34,12.55,10.55,9.75C163,25.92,170,32.78,170,32.78Z"/></g></g></svg>